<?xml version="1.0" encoding="utf-8"?>
<!-- Generator: Adobe Illustrator 16.0.0, SVG Export Plug-In . SVG Version: 6.00 Build 0)  -->
<!DOCTYPE svg PUBLIC "-//W3C//DTD SVG 1.1//EN" "http://www.w3.org/Graphics/SVG/1.1/DTD/svg11.dtd">
<svg version="1.1" id="Слой_1" xmlns="http://www.w3.org/2000/svg" xmlns:xlink="http://www.w3.org/1999/xlink" x="0px" y="0px"
	 width="316.268px" height="81.798px" viewBox="0 0 316.268 81.798" enable-background="new 0 0 316.268 81.798"
	 xml:space="preserve">
<g>
	<path fill-rule="evenodd" clip-rule="evenodd" d="M19.999,81.565v-9.618h-1.795v9.618H19.999L19.999,81.565z M22.807,74.436h-0.987
		v7.13h1.013v-4.771c0-0.513,0.052-0.924,0.462-1.296c0.27-0.256,0.628-0.397,1-0.397c0.821,0,1.064,0.5,1.064,1.244v5.22h1.013
		v-5.502c0-1.256-0.692-1.82-1.757-1.82c-0.77,0-1.295,0.358-1.808,0.975V74.436L22.807,74.436z M31.719,78.77
		c0,0.808-0.295,2.129-1.346,2.129c-1.385,0-1.437-1.398-1.437-2.937c0-2.193,0.552-2.86,1.398-2.86
		c1.359,0,1.385,1.809,1.385,2.783V78.77L31.719,78.77z M31.719,75.166h-0.025c-0.475-0.615-0.911-0.923-1.642-0.923
		c-1.526,0-2.219,1.653-2.142,3.744c0.026,0.628-0.154,3.772,2.09,3.772c0.859,0,1.295-0.284,1.731-1.131h0.026v0.937h0.975v-9.618
		h-1.013V75.166L31.719,75.166z M38.13,81.565h1.013v-7.13H38.13v4.577c0,0.411-0.064,0.898-0.295,1.257
		c-0.282,0.411-0.731,0.629-1.218,0.629c-0.718,0-0.911-0.321-0.911-0.924v-5.539h-1.013v5.501c0,1.257,0.654,1.823,1.718,1.823
		c0.692,0,1.346-0.4,1.693-1.131h0.025V81.565L38.13,81.565z M44.99,76.346c0.026-1.462-0.794-2.103-2.205-2.103
		c-1.231,0-2.09,0.782-2.09,2.013c0,1.244,0.641,1.616,1.744,2.026c0.731,0.308,1.757,0.397,1.757,1.41
		c0,0.872-0.539,1.206-1.36,1.206c-0.949,0-1.243-0.539-1.205-1.411h-0.962c0,0.487-0.026,0.962,0.397,1.526
		c0.372,0.538,1.141,0.759,1.769,0.746c1.462,0.013,2.411-0.836,2.411-2.195c0-1.334-1.026-1.59-2.051-2.052
		c-0.693-0.295-1.449-0.41-1.449-1.334c0-0.743,0.41-1.077,1.128-1.077c0.859,0,1.167,0.397,1.128,1.244H44.99L44.99,76.346z
		 M47.914,72.499h-1v1.937h-0.988v0.858h0.988v5.104c0,1.078,0.448,1.183,1.051,1.168h1.116v-0.859h-0.679
		c-0.564,0-0.475-0.309-0.475-0.552v-4.86h1.18v-0.858h-1.193V72.499L47.914,72.499z M51.389,74.436h-0.975v7.13h1.013v-4.322
		c0-1.295,0.77-2.115,2.077-1.885v-1c-1.064-0.09-1.667,0.308-2.09,1.243h-0.026V74.436L51.389,74.436z M55.583,81.565v-7.13H54.57
		v7.13H55.583L55.583,81.565z M55.583,73.229v-1.282H54.57v1.282H55.583L55.583,73.229z M60.173,79.449
		c0,1.154-0.846,1.449-1.231,1.449c-0.82,0-1-0.462-1-1.18c0-0.487,0.154-1.014,0.628-1.231c0.539-0.257,1.103-0.475,1.603-0.77
		V79.449L60.173,79.449z M61.84,80.821c-0.141,0.013-0.295,0.025-0.436-0.014c-0.206-0.102-0.18-0.358-0.18-0.538v-4.091
		c0-0.166,0.18-1.936-1.936-1.936c-1.437,0-2.167,0.641-2.116,2.115h0.91c-0.013-0.833,0.115-1.257,1.039-1.257
		c0.821,0,1.128,0.308,1.128,1.116c0,0.372,0.026,0.654-0.192,0.82c-0.128,0.103-1.564,0.642-2.141,0.898
		c-0.988,0.436-1.026,1.461-1.026,1.73c0,1.295,0.411,2.093,1.834,2.093c0.68,0,1.333-0.528,1.578-1.156h0.025
		c0.103,0.977,0.423,1.054,1.282,1.015c0.077-0.025,0.154-0.038,0.231-0.053V80.821L61.84,80.821z M64.123,81.565v-9.618h-1.013
		v9.618H64.123L64.123,81.565z M67.7,73.358h0.821c1.013,0,1.449,0.166,1.449,1.27c0,1.167-0.526,1.5-1.308,1.5H67.7V73.358
		L67.7,73.358z M67.7,81.565v-4.027h1.206c0.692,0.014,1.449-0.128,2.013-0.576c0.68-0.539,0.898-1.463,0.898-2.283
		c0-1.347-0.526-2.731-2.244-2.731h-3.667v9.618H67.7L67.7,81.565z M76.92,78.141c-0.039,0.616,0.077,2.206-0.91,2.206
		c-1.231,0-1.295-1.295-1.295-2.09V75.59c0-0.744-0.115-2.424,1.295-2.424c0.885,0,0.821,1.154,0.897,1.77h1.77
		c0.013-0.244-0.013-0.487-0.039-0.731c-0.128-1.641-1.026-2.462-2.628-2.487c-2.873,0-3.065,1.82-3.142,4.271v1.372
		c0,2.564,0.192,4.438,3.142,4.438c2,0,2.59-1.349,2.68-3.105c0.013-0.18,0.026-0.372,0.039-0.552H76.92L76.92,78.141z"/>
	<polygon fill-rule="evenodd" clip-rule="evenodd" fill="#0072B4" points="36.792,0.135 18.898,0.135 18.858,17.905 23.2,27.272 
		23.162,68.182 36.476,68.182 36.492,37.388 55.454,68.182 68.767,68.182 68.941,27.272 73.06,17.459 73.02,0.135 55.561,0.135 
		55.522,47.538 36.712,17.296 36.792,0.135 	"/>
	<path fill-rule="evenodd" clip-rule="evenodd" d="M74.586,0.48c30.443-3.531,19.566,26.99-4.629,44.396
		c0-1.085,0.116-2.17,0.116-3.254c4.807-2.975,13.889-12.202,17.958-21.205c4.679-10.354,4.558-19.273-13.329-17.612
		C74.664,1.952,74.625,1.332,74.586,0.48L74.586,0.48z M40.054,0h12.477v37.678L40.054,17.029V0L40.054,0z M19.478,22.826
		c0.621,0.622,0.662,1.476,1.283,2.097c-33.676,30.539-14.104,41.205,1.148,38.389c0.089,1.154,0.027,1.428,0.116,2.582
		C-7.748,68.221-6.083,44.102,19.478,22.826L19.478,22.826z M39.285,68.234l-0.001-21.771l13.084,21.771H39.285L39.285,68.234z"/>
	<path fill-rule="evenodd" clip-rule="evenodd" fill="#0072B4" d="M116.756,31.039V18.27h7.296v12.769h5.213V3.118h-5.213v11.057
		h-7.296V3.118h-5.212v27.921H116.756L116.756,31.039z M155.187,31.039V3.118h-5.399l-4.058,10.164
		c-1.34,3.239-2.458,6.552-3.724,11.094h-0.074c0.186-2.532,0.372-5.25,0.521-7.93c0.148-2.681,0.26-5.361,0.26-7.855V3.118h-5.212
		v27.921h5.436l4.058-9.94c1.377-3.313,2.494-6.7,3.723-11.094h0.074c-0.187,2.308-0.41,5.138-0.559,7.967
		c-0.149,2.792-0.261,5.584-0.261,7.818v5.249H155.187L155.187,31.039z M177.981,31.039v-4.095h-9.457v-8.6h8.713v-4.095h-8.713
		V7.213h9.457V3.118h-14.668v27.921H177.981L177.981,31.039z M190.5,31.039V18.27h7.297v12.769h5.212V3.118h-5.212v11.057H190.5
		V3.118h-5.213v27.921H190.5L190.5,31.039z M221.597,26.944h-5.138V3.118h-5.213v27.921h25.912V3.118h-5.212v23.827h-5.138V3.118
		h-5.212V26.944L221.597,26.944z M248.859,31.039l1.378-7.073h6.104l1.378,7.073h5.584l-6.329-27.921h-7.036l-6.663,27.921H248.859
		L248.859,31.039z M252.619,11.94c0.261-1.302,0.372-2.568,0.521-3.871c0.037-0.633,0.111-1.266,0.187-1.862h0.074
		c0.074,0.596,0.148,1.229,0.186,1.862c0.149,1.303,0.261,2.569,0.521,3.871l1.415,7.93h-4.468L252.619,11.94L252.619,11.94z
		 M274.594,31.039V18.27h7.297v12.769h5.212V3.118h-5.212v11.057h-7.297V3.118h-5.212v27.921H274.594L274.594,31.039z
		 M315.251,31.064v-4.12h-2.227V3.118h-5.212v23.827h-7.297V3.118h-5.212v27.921h14.481L315.251,31.064L315.251,31.064z
		 M112.813,68.475l1.377-7.073h6.106l1.377,7.073h5.584l-6.329-27.922h-7.036l-6.664,27.922H112.813L112.813,68.475z
		 M116.573,49.376c0.26-1.303,0.372-2.568,0.521-3.871c0.037-0.634,0.112-1.266,0.187-1.861h0.074
		c0.075,0.596,0.149,1.228,0.187,1.861c0.148,1.303,0.26,2.568,0.521,3.871l1.415,7.93h-4.467L116.573,49.376L116.573,49.376z
		 M135.225,64.379v-8.45h2.01c3.238,0,3.834,1.266,3.834,4.281c0,1.414-0.186,3.239-1.601,3.872
		c-0.931,0.409-2.048,0.297-3.128,0.297H135.225L135.225,64.379z M135.225,51.833v-7.185h2.419c2.383,0.074,2.829,1.117,2.829,3.201
		c0,1.34-0.074,2.309-0.558,3.017c-0.819,1.041-2.458,0.967-3.723,0.967H135.225L135.225,51.833z M139.208,68.475
		c3.723,0,5.734-1.489,6.85-5.025c0.298-1.117,0.373-2.271,0.373-3.426c0-3.61-1.117-6.068-4.058-6.478v-0.075
		c2.83-1.041,3.351-3.424,3.351-5.845c0-1.898-0.186-3.499-1.377-5.025c-1.489-1.899-3.686-2.048-5.919-2.048h-8.414v27.922H139.208
		L139.208,68.475z M148.254,44.648h6.106v23.826h5.211V44.648h6.068v-4.096h-17.386V44.648L148.254,44.648z M167.837,56.263
		c0,7.446,0.559,12.888,9.121,12.888s9.121-5.441,9.121-12.888V52.28c-0.223-7.111-0.782-12.397-9.121-12.397
		s-8.897,5.286-9.121,12.397V56.263L167.837,56.263z M173.199,51.126c0-2.159-0.336-7.036,3.76-7.036c3.872,0,3.76,4.951,3.76,7.186
		v7.147c0,2.681-0.037,6.516-3.76,6.516c-3.573,0-3.76-3.761-3.76-6.069V51.126L173.199,51.126z M196.02,59.688
		c0-5.547-0.112-11.094-0.447-16.641h0.186l5.473,25.427h3.165l5.585-25.427h0.074c-0.335,5.547-0.447,11.094-0.447,16.641v8.786
		h5.212V40.553h-8.265l-2.792,12.955c-0.372,1.825-0.559,3.687-0.819,6.441h-0.074c-0.224-2.159-0.521-4.318-0.968-6.441
		l-2.793-12.955h-8.302v27.922h5.213V59.688L196.02,59.688z M223.196,68.475l1.378-7.073h6.105l1.378,7.073h5.584l-6.329-27.922
		h-7.036l-6.664,27.922H223.196L223.196,68.475z M226.957,49.376c0.261-1.303,0.372-2.568,0.521-3.871
		c0.037-0.634,0.112-1.266,0.188-1.861h0.074c0.074,0.596,0.148,1.228,0.186,1.861c0.149,1.303,0.261,2.568,0.521,3.871l1.414,7.93
		h-4.467L226.957,49.376L226.957,49.376z M235.854,44.648h6.105v23.826h5.212V44.648h6.068v-4.096h-17.386V44.648L235.854,44.648z
		 M274.051,68.475V40.553h-5.398l-4.058,10.164c-1.341,3.238-2.457,6.552-3.723,11.094h-0.075c0.187-2.531,0.373-5.249,0.521-7.93
		c0.149-2.681,0.261-5.36,0.261-7.855v-5.473h-5.212v27.922h5.436l4.058-9.94c1.378-3.313,2.495-6.701,3.723-11.094h0.074
		c-0.186,2.309-0.409,5.138-0.559,7.967c-0.148,2.792-0.26,5.584-0.26,7.818v5.249H274.051L274.051,68.475z M284.326,68.475v-8.004
		l1.824-3.016l4.915,11.02h5.882l-7.223-15.934l6.888-11.988h-5.883l-3.053,5.696c-1.117,2.048-2.457,4.505-3.275,6.701h-0.075
		V40.553h-5.212v27.922H284.326L284.326,68.475z M301.823,68.475l1.378-7.073h6.106l1.377,7.073h5.584l-6.329-27.922h-7.036
		l-6.664,27.922H301.823L301.823,68.475z M305.583,49.376c0.261-1.303,0.372-2.568,0.521-3.871c0.038-0.634,0.112-1.266,0.188-1.861
		h0.074c0.074,0.596,0.148,1.228,0.186,1.861c0.149,1.303,0.261,2.568,0.521,3.871l1.414,7.93h-4.467L305.583,49.376L305.583,49.376
		z"/>
	<polygon fill-rule="evenodd" clip-rule="evenodd" points="111.19,35.024 315.125,35.024 315.125,36.468 111.19,36.468 
		111.19,35.024 	"/>
</g>
</svg>
