<?xml version="1.0" encoding="utf-8"?>
<!-- Generator: Adobe Illustrator 16.0.0, SVG Export Plug-In . SVG Version: 6.00 Build 0)  -->
<!DOCTYPE svg PUBLIC "-//W3C//DTD SVG 1.1//EN" "http://www.w3.org/Graphics/SVG/1.1/DTD/svg11.dtd">
<svg version="1.1" id="Слой_1" xmlns="http://www.w3.org/2000/svg" xmlns:xlink="http://www.w3.org/1999/xlink" x="0px" y="0px"
	 width="200px" height="200px" viewBox="0 0 200 200" enable-background="new 0 0 200 200" xml:space="preserve">
<polygon fill-rule="evenodd" clip-rule="evenodd" fill="#FFFFFF" points="79.968,29.565 42.291,29.565 42.207,66.982 51.349,86.705 
	51.27,172.843 79.302,172.843 79.336,108.004 119.261,172.843 147.293,172.843 147.661,86.705 156.332,66.042 156.248,29.565 
	119.487,29.565 119.404,129.376 79.801,65.699 79.968,29.565 "/>
<path fill-rule="evenodd" clip-rule="evenodd" fill="#FFFFFF" d="M159.547,30.292c64.101-7.436,41.198,56.829-9.747,93.478
	c0-2.284,0.245-4.568,0.245-6.852c10.12-6.263,29.245-25.691,37.812-44.648c9.85-21.801,9.597-40.582-28.065-37.084
	C159.711,33.391,159.629,32.085,159.547,30.292L159.547,30.292z M86.836,29.281h26.272v79.333L86.836,65.136V29.281L86.836,29.281z
	 M43.512,77.342c1.308,1.309,1.393,3.107,2.702,4.416c-70.908,64.303-29.698,86.761,2.417,80.83
	c0.187,2.431,0.058,3.007,0.245,5.437C-13.813,172.925-10.308,122.14,43.512,77.342L43.512,77.342z M85.217,172.954l-0.003-45.84
	l27.549,45.84H85.217L85.217,172.954z"/>
</svg>
