<?xml version="1.0" encoding="utf-8"?>
<!-- Generator: Adobe Illustrator 16.0.0, SVG Export Plug-In . SVG Version: 6.00 Build 0)  -->
<!DOCTYPE svg PUBLIC "-//W3C//DTD SVG 1.1//EN" "http://www.w3.org/Graphics/SVG/1.1/DTD/svg11.dtd">
<svg version="1.1" id="Слой_1" xmlns="http://www.w3.org/2000/svg" xmlns:xlink="http://www.w3.org/1999/xlink" x="0px" y="0px"
	 width="200px" height="200px" viewBox="0 0 200 200" enable-background="new 0 0 200 200" xml:space="preserve">
<g>
	<path fill="#22B1FC" d="M48.237,38.866c14.878,0,29.526,6.852,29.526,23.242c0,15.114-17.319,20.927-21.039,26.388
		c-2.792,4.063-1.859,9.771-9.532,9.771c-4.998,0-7.439-4.064-7.439-7.784c0-13.842,20.337-16.974,20.337-28.372
		c0-6.273-4.175-9.993-11.153-9.993c-14.878,0-9.068,15.339-20.337,15.339c-4.068,0-7.56-2.441-7.56-7.088
		C21.037,48.969,34.053,38.866,48.237,38.866z M47.658,105.813c5.223,0,9.532,4.295,9.532,9.534s-4.301,9.535-9.532,9.535
		c-5.231,0-9.535-4.29-9.535-9.535C38.124,110.111,42.427,105.813,47.658,105.813z"/>
</g>
<g>
	<path fill="#22B1FC" d="M138.131,42.916c18.344,8.69,32.403,25.694,22.83,45.902c-8.827,18.635-33.576,15.688-41.353,20.248
		c-5.815,3.379-7.999,10.96-17.459,6.48c-6.163-2.92-6.799-9.357-4.626-13.943c8.084-17.067,34.99-9.051,41.646-23.104
		c3.664-7.735,0.689-14.76-7.915-18.835c-18.345-8.689-20.14,13.617-34.035,7.036c-5.016-2.375-7.896-7.426-5.181-13.155
		C98.693,39.487,120.642,34.632,138.131,42.916z M98.316,125.124c6.439,3.051,9.245,10.861,6.185,17.322
		c-3.06,6.459-10.872,9.246-17.322,6.189c-6.45-3.055-9.25-10.857-6.187-17.324C84.05,124.854,91.867,122.067,98.316,125.124z"/>
</g>
<g>
	<path fill="#22B1FC" d="M175.444,140.458c5.169,10.375,5.629,22.893-5.44,28.408c-10.208,5.087-20.151-5.032-25.133-5.787
		c-3.712-0.58-7.244,1.99-9.91-3.359c-1.735-3.484,0.161-6.554,2.674-7.807c9.35-4.656,18.53,8.468,26.228,4.632
		c4.237-2.11,5.3-6.273,2.875-11.14c-5.169-10.373-13.511-1.16-17.426-9.016c-1.413-2.837-0.977-6.094,2.16-7.657
		C159.172,124.894,170.516,130.569,175.444,140.458z M130.026,162.585c1.813,3.642,0.41,8.092-3.128,9.855
		c-3.539,1.764-7.935,0.209-9.752-3.438s-0.415-8.092,3.129-9.857C123.811,157.385,128.209,158.938,130.026,162.585z"/>
</g>
</svg>
